<mxfile host="app.diagrams.net" agent="Mozilla/5.0 (Windows NT 10.0; Win64; x64) AppleWebKit/537.36 (KHTML, like Gecko) Chrome/129.0.0.0 Safari/537.36" version="24.7.16">
  <diagram name="Page-1" id="SW_tTv13ED2CmIfMFETJ">
    <mxGraphModel grid="1" page="1" gridSize="5" guides="1" tooltips="1" connect="1" arrows="1" fold="1" pageScale="1" pageWidth="850" pageHeight="1100" math="0" shadow="0">
      <root>
        <mxCell id="0" />
        <mxCell id="1" parent="0" />
        <mxCell id="83QOzR8mfGI3t9jmjYES-41" style="edgeStyle=orthogonalEdgeStyle;rounded=0;orthogonalLoop=1;jettySize=auto;html=1;" edge="1" parent="1" source="83QOzR8mfGI3t9jmjYES-16" target="83QOzR8mfGI3t9jmjYES-36">
          <mxGeometry relative="1" as="geometry" />
        </mxCell>
        <mxCell id="83QOzR8mfGI3t9jmjYES-16" value="Account" style="whiteSpace=wrap;html=1;align=center;" vertex="1" parent="1">
          <mxGeometry x="170" y="380" width="100" height="40" as="geometry" />
        </mxCell>
        <mxCell id="83QOzR8mfGI3t9jmjYES-17" value="Permission" style="whiteSpace=wrap;html=1;align=center;" vertex="1" parent="1">
          <mxGeometry x="450" y="380" width="100" height="40" as="geometry" />
        </mxCell>
        <mxCell id="83QOzR8mfGI3t9jmjYES-48" style="edgeStyle=orthogonalEdgeStyle;rounded=0;orthogonalLoop=1;jettySize=auto;html=1;fillColor=#f8cecc;strokeColor=#b85450;" edge="1" parent="1" source="83QOzR8mfGI3t9jmjYES-18" target="83QOzR8mfGI3t9jmjYES-47">
          <mxGeometry relative="1" as="geometry" />
        </mxCell>
        <mxCell id="83QOzR8mfGI3t9jmjYES-18" value="Buyers" style="whiteSpace=wrap;html=1;align=center;" vertex="1" parent="1">
          <mxGeometry x="-60" y="470" width="100" height="40" as="geometry" />
        </mxCell>
        <mxCell id="83QOzR8mfGI3t9jmjYES-119" style="edgeStyle=orthogonalEdgeStyle;rounded=0;orthogonalLoop=1;jettySize=auto;html=1;" edge="1" parent="1" source="83QOzR8mfGI3t9jmjYES-19" target="83QOzR8mfGI3t9jmjYES-118">
          <mxGeometry relative="1" as="geometry" />
        </mxCell>
        <mxCell id="83QOzR8mfGI3t9jmjYES-19" value="Property" style="whiteSpace=wrap;html=1;align=center;" vertex="1" parent="1">
          <mxGeometry x="-240" y="560" width="120" height="50" as="geometry" />
        </mxCell>
        <mxCell id="83QOzR8mfGI3t9jmjYES-20" value="Registrations" style="whiteSpace=wrap;html=1;align=center;" vertex="1" parent="1">
          <mxGeometry x="-240" y="350" width="120" height="60" as="geometry" />
        </mxCell>
        <mxCell id="83QOzR8mfGI3t9jmjYES-50" style="edgeStyle=orthogonalEdgeStyle;rounded=0;orthogonalLoop=1;jettySize=auto;html=1;entryX=1;entryY=0.5;entryDx=0;entryDy=0;" edge="1" parent="1" source="83QOzR8mfGI3t9jmjYES-21" target="83QOzR8mfGI3t9jmjYES-47">
          <mxGeometry relative="1" as="geometry" />
        </mxCell>
        <mxCell id="83QOzR8mfGI3t9jmjYES-21" value="Admin" style="whiteSpace=wrap;html=1;align=center;" vertex="1" parent="1">
          <mxGeometry x="-60" y="560" width="100" height="40" as="geometry" />
        </mxCell>
        <mxCell id="83QOzR8mfGI3t9jmjYES-49" style="edgeStyle=orthogonalEdgeStyle;rounded=0;orthogonalLoop=1;jettySize=auto;html=1;entryX=1;entryY=0.5;entryDx=0;entryDy=0;" edge="1" parent="1" source="83QOzR8mfGI3t9jmjYES-22" target="83QOzR8mfGI3t9jmjYES-47">
          <mxGeometry relative="1" as="geometry">
            <Array as="points">
              <mxPoint x="-90" y="390" />
              <mxPoint x="-90" y="490" />
            </Array>
          </mxGeometry>
        </mxCell>
        <mxCell id="83QOzR8mfGI3t9jmjYES-22" value="Sellers" style="whiteSpace=wrap;html=1;align=center;" vertex="1" parent="1">
          <mxGeometry x="-60" y="370" width="100" height="40" as="geometry" />
        </mxCell>
        <mxCell id="83QOzR8mfGI3t9jmjYES-35" style="edgeStyle=orthogonalEdgeStyle;rounded=0;orthogonalLoop=1;jettySize=auto;html=1;entryX=0.5;entryY=0;entryDx=0;entryDy=0;" edge="1" parent="1" source="83QOzR8mfGI3t9jmjYES-32" target="83QOzR8mfGI3t9jmjYES-16">
          <mxGeometry relative="1" as="geometry" />
        </mxCell>
        <mxCell id="83QOzR8mfGI3t9jmjYES-46" style="edgeStyle=orthogonalEdgeStyle;rounded=0;orthogonalLoop=1;jettySize=auto;html=1;entryX=0.5;entryY=0;entryDx=0;entryDy=0;" edge="1" parent="1" source="83QOzR8mfGI3t9jmjYES-32" target="83QOzR8mfGI3t9jmjYES-17">
          <mxGeometry relative="1" as="geometry" />
        </mxCell>
        <mxCell id="83QOzR8mfGI3t9jmjYES-81" style="edgeStyle=orthogonalEdgeStyle;rounded=0;orthogonalLoop=1;jettySize=auto;html=1;entryX=0.5;entryY=1;entryDx=0;entryDy=0;" edge="1" parent="1" source="83QOzR8mfGI3t9jmjYES-32" target="83QOzR8mfGI3t9jmjYES-80">
          <mxGeometry relative="1" as="geometry" />
        </mxCell>
        <mxCell id="83QOzR8mfGI3t9jmjYES-32" value="has a" style="shape=rhombus;perimeter=rhombusPerimeter;whiteSpace=wrap;html=1;align=center;" vertex="1" parent="1">
          <mxGeometry x="300" y="320" width="120" height="60" as="geometry" />
        </mxCell>
        <mxCell id="83QOzR8mfGI3t9jmjYES-42" style="edgeStyle=orthogonalEdgeStyle;rounded=0;orthogonalLoop=1;jettySize=auto;html=1;entryX=1;entryY=0.5;entryDx=0;entryDy=0;" edge="1" parent="1" source="83QOzR8mfGI3t9jmjYES-36" target="83QOzR8mfGI3t9jmjYES-22">
          <mxGeometry relative="1" as="geometry">
            <Array as="points">
              <mxPoint x="110" y="490" />
              <mxPoint x="110" y="390" />
            </Array>
          </mxGeometry>
        </mxCell>
        <mxCell id="83QOzR8mfGI3t9jmjYES-43" style="edgeStyle=orthogonalEdgeStyle;rounded=0;orthogonalLoop=1;jettySize=auto;html=1;" edge="1" parent="1" source="83QOzR8mfGI3t9jmjYES-36" target="83QOzR8mfGI3t9jmjYES-18">
          <mxGeometry relative="1" as="geometry">
            <mxPoint x="50" y="490" as="targetPoint" />
            <Array as="points" />
          </mxGeometry>
        </mxCell>
        <mxCell id="83QOzR8mfGI3t9jmjYES-44" style="edgeStyle=orthogonalEdgeStyle;rounded=0;orthogonalLoop=1;jettySize=auto;html=1;entryX=1;entryY=0.5;entryDx=0;entryDy=0;" edge="1" parent="1" source="83QOzR8mfGI3t9jmjYES-36" target="83QOzR8mfGI3t9jmjYES-21">
          <mxGeometry relative="1" as="geometry">
            <Array as="points">
              <mxPoint x="110" y="490" />
              <mxPoint x="110" y="580" />
            </Array>
          </mxGeometry>
        </mxCell>
        <mxCell id="83QOzR8mfGI3t9jmjYES-36" value="can be" style="shape=rhombus;perimeter=rhombusPerimeter;whiteSpace=wrap;html=1;align=center;" vertex="1" parent="1">
          <mxGeometry x="160" y="460" width="120" height="60" as="geometry" />
        </mxCell>
        <mxCell id="83QOzR8mfGI3t9jmjYES-51" value="" style="edgeStyle=orthogonalEdgeStyle;rounded=0;orthogonalLoop=1;jettySize=auto;html=1;fillColor=#f8cecc;strokeColor=#b85450;" edge="1" parent="1" source="83QOzR8mfGI3t9jmjYES-47" target="83QOzR8mfGI3t9jmjYES-19">
          <mxGeometry relative="1" as="geometry" />
        </mxCell>
        <mxCell id="83QOzR8mfGI3t9jmjYES-52" value="" style="edgeStyle=orthogonalEdgeStyle;rounded=0;orthogonalLoop=1;jettySize=auto;html=1;" edge="1" parent="1" source="83QOzR8mfGI3t9jmjYES-47" target="83QOzR8mfGI3t9jmjYES-20">
          <mxGeometry relative="1" as="geometry" />
        </mxCell>
        <mxCell id="83QOzR8mfGI3t9jmjYES-54" value="" style="edgeStyle=orthogonalEdgeStyle;rounded=0;orthogonalLoop=1;jettySize=auto;html=1;" edge="1" parent="1" source="83QOzR8mfGI3t9jmjYES-47" target="83QOzR8mfGI3t9jmjYES-53">
          <mxGeometry relative="1" as="geometry" />
        </mxCell>
        <mxCell id="83QOzR8mfGI3t9jmjYES-47" value="manage" style="shape=rhombus;perimeter=rhombusPerimeter;whiteSpace=wrap;html=1;align=center;" vertex="1" parent="1">
          <mxGeometry x="-240" y="460" width="120" height="60" as="geometry" />
        </mxCell>
        <mxCell id="83QOzR8mfGI3t9jmjYES-53" value="Transaction History" style="whiteSpace=wrap;html=1;" vertex="1" parent="1">
          <mxGeometry x="-400" y="460" width="120" height="60" as="geometry" />
        </mxCell>
        <mxCell id="83QOzR8mfGI3t9jmjYES-59" value="Permission" style="swimlane;childLayout=stackLayout;horizontal=1;startSize=50;horizontalStack=0;rounded=1;fontSize=14;fontStyle=0;strokeWidth=2;resizeParent=0;resizeLast=1;shadow=0;dashed=0;align=center;arcSize=4;whiteSpace=wrap;html=1;fillColor=#d0cee2;strokeColor=#56517e;" vertex="1" parent="1">
          <mxGeometry x="540" y="920" width="160" height="140" as="geometry" />
        </mxCell>
        <mxCell id="83QOzR8mfGI3t9jmjYES-60" value="permission_id (PK)&lt;div&gt;permission_name&lt;br&gt;&lt;div&gt;permission_perks&lt;/div&gt;&lt;div&gt;permission_role_id (FK)&lt;/div&gt;&lt;div&gt;&lt;div&gt;&lt;br&gt;&lt;/div&gt;&lt;/div&gt;&lt;/div&gt;" style="align=left;strokeColor=#56517e;fillColor=#d0cee2;spacingLeft=4;fontSize=12;verticalAlign=top;resizable=0;rotatable=0;part=1;html=1;" vertex="1" parent="83QOzR8mfGI3t9jmjYES-59">
          <mxGeometry y="50" width="160" height="90" as="geometry" />
        </mxCell>
        <mxCell id="83QOzR8mfGI3t9jmjYES-62" value="Seller" style="swimlane;childLayout=stackLayout;horizontal=1;startSize=50;horizontalStack=0;rounded=1;fontSize=14;fontStyle=0;strokeWidth=2;resizeParent=0;resizeLast=1;shadow=0;dashed=0;align=center;arcSize=4;whiteSpace=wrap;html=1;fillColor=#f8cecc;strokeColor=#b85450;" vertex="1" parent="1">
          <mxGeometry x="-140" y="930" width="160" height="120" as="geometry" />
        </mxCell>
        <mxCell id="83QOzR8mfGI3t9jmjYES-63" value="seller_id (PK)&lt;div&gt;property_id (FK)&lt;br&gt;&lt;div&gt;&lt;div&gt;user_id (FK)&lt;br&gt;&lt;/div&gt;&lt;/div&gt;&lt;/div&gt;" style="align=left;strokeColor=none;fillColor=none;spacingLeft=4;fontSize=12;verticalAlign=top;resizable=0;rotatable=0;part=1;html=1;" vertex="1" parent="83QOzR8mfGI3t9jmjYES-62">
          <mxGeometry y="50" width="160" height="70" as="geometry" />
        </mxCell>
        <mxCell id="83QOzR8mfGI3t9jmjYES-64" value="Buyer" style="swimlane;childLayout=stackLayout;horizontal=1;startSize=50;horizontalStack=0;rounded=1;fontSize=14;fontStyle=0;strokeWidth=2;resizeParent=0;resizeLast=1;shadow=0;dashed=0;align=center;arcSize=4;whiteSpace=wrap;html=1;fillColor=#dae8fc;strokeColor=#6c8ebf;" vertex="1" parent="1">
          <mxGeometry x="-140" y="1110" width="160" height="120" as="geometry" />
        </mxCell>
        <mxCell id="83QOzR8mfGI3t9jmjYES-65" value="buyer_id (PK)&lt;div&gt;buyer_Cart&lt;/div&gt;&lt;div&gt;property_id (FK)&lt;br&gt;&lt;div&gt;user_id (FK)&lt;br&gt;&lt;/div&gt;&lt;div&gt;&lt;br&gt;&lt;/div&gt;&lt;/div&gt;" style="align=left;strokeColor=none;fillColor=none;spacingLeft=4;fontSize=12;verticalAlign=top;resizable=0;rotatable=0;part=1;html=1;" vertex="1" parent="83QOzR8mfGI3t9jmjYES-64">
          <mxGeometry y="50" width="160" height="70" as="geometry" />
        </mxCell>
        <mxCell id="83QOzR8mfGI3t9jmjYES-66" value="Admin" style="swimlane;childLayout=stackLayout;horizontal=1;startSize=50;horizontalStack=0;rounded=1;fontSize=14;fontStyle=0;strokeWidth=2;resizeParent=0;resizeLast=1;shadow=0;dashed=0;align=center;arcSize=4;whiteSpace=wrap;html=1;fillColor=#d5e8d4;strokeColor=#82b366;" vertex="1" parent="1">
          <mxGeometry x="-140" y="1310" width="160" height="100" as="geometry" />
        </mxCell>
        <mxCell id="83QOzR8mfGI3t9jmjYES-67" value="admin_id (PK)&lt;div&gt;user_id (FK)&lt;br&gt;&lt;/div&gt;" style="align=left;strokeColor=none;fillColor=none;spacingLeft=4;fontSize=12;verticalAlign=top;resizable=0;rotatable=0;part=1;html=1;" vertex="1" parent="83QOzR8mfGI3t9jmjYES-66">
          <mxGeometry y="50" width="160" height="50" as="geometry" />
        </mxCell>
        <mxCell id="83QOzR8mfGI3t9jmjYES-68" value="Documents" style="swimlane;childLayout=stackLayout;horizontal=1;startSize=50;horizontalStack=0;rounded=1;fontSize=14;fontStyle=0;strokeWidth=2;resizeParent=0;resizeLast=1;shadow=0;dashed=0;align=center;arcSize=4;whiteSpace=wrap;html=1;" vertex="1" parent="1">
          <mxGeometry x="-470" y="950" width="160" height="185" as="geometry" />
        </mxCell>
        <mxCell id="83QOzR8mfGI3t9jmjYES-69" value="documentation_id (PK)&lt;div&gt;&lt;span style=&quot;background-color: initial;&quot;&gt;documentation&lt;/span&gt;_type&lt;/div&gt;&lt;div&gt;&lt;br&gt;&lt;/div&gt;&lt;div&gt;&lt;br&gt;&lt;/div&gt;&lt;div&gt;&lt;br&gt;&lt;/div&gt;&lt;div&gt;property_ID (FK)&lt;/div&gt;&lt;div&gt;seller_id (FK)&lt;br&gt;admin_id (FK)&lt;/div&gt;" style="align=left;strokeColor=none;fillColor=none;spacingLeft=4;fontSize=12;verticalAlign=top;resizable=0;rotatable=0;part=1;html=1;" vertex="1" parent="83QOzR8mfGI3t9jmjYES-68">
          <mxGeometry y="50" width="160" height="135" as="geometry" />
        </mxCell>
        <mxCell id="83QOzR8mfGI3t9jmjYES-70" value="Property" style="swimlane;childLayout=stackLayout;horizontal=1;startSize=50;horizontalStack=0;rounded=1;fontSize=14;fontStyle=0;strokeWidth=2;resizeParent=0;resizeLast=1;shadow=0;dashed=0;align=center;arcSize=4;whiteSpace=wrap;html=1;fillColor=#ffe6cc;strokeColor=#d79b00;" vertex="1" parent="1">
          <mxGeometry x="-460" y="1270" width="160" height="175" as="geometry" />
        </mxCell>
        <mxCell id="83QOzR8mfGI3t9jmjYES-71" value="property_id (PK)&lt;div&gt;property_name&lt;/div&gt;&lt;div&gt;property_description&lt;/div&gt;&lt;div&gt;property_price&lt;/div&gt;&lt;div&gt;seller_id (FK)&lt;/div&gt;&lt;div&gt;property_doc (FK)&lt;/div&gt;&lt;div&gt;transaction_hist (FK)&lt;/div&gt;&lt;div&gt;admin_id (FK)&lt;/div&gt;" style="align=left;strokeColor=#d79b00;fillColor=#ffe6cc;spacingLeft=4;fontSize=12;verticalAlign=top;resizable=0;rotatable=0;part=1;html=1;" vertex="1" parent="83QOzR8mfGI3t9jmjYES-70">
          <mxGeometry y="50" width="160" height="125" as="geometry" />
        </mxCell>
        <mxCell id="83QOzR8mfGI3t9jmjYES-72" value="Transaction History" style="swimlane;childLayout=stackLayout;horizontal=1;startSize=50;horizontalStack=0;rounded=1;fontSize=14;fontStyle=0;strokeWidth=2;resizeParent=0;resizeLast=1;shadow=0;dashed=0;align=center;arcSize=4;whiteSpace=wrap;html=1;fillColor=#6a00ff;fontColor=#ffffff;strokeColor=#3700CC;" vertex="1" parent="1">
          <mxGeometry x="-745" y="1095" width="160" height="170" as="geometry" />
        </mxCell>
        <mxCell id="83QOzR8mfGI3t9jmjYES-73" value="transaction_id (PK)&lt;br&gt;transaction_date&lt;div&gt;transaction_desc&lt;/div&gt;&lt;div&gt;seller_id (FK)&lt;/div&gt;&lt;div&gt;buyer_id (FK)&lt;br&gt;admin_id (FK)&lt;/div&gt;&lt;div&gt;property_id( FK)&lt;/div&gt;" style="align=left;strokeColor=none;fillColor=none;spacingLeft=4;fontSize=12;verticalAlign=top;resizable=0;rotatable=0;part=1;html=1;" vertex="1" parent="83QOzR8mfGI3t9jmjYES-72">
          <mxGeometry y="50" width="160" height="120" as="geometry" />
        </mxCell>
        <mxCell id="83QOzR8mfGI3t9jmjYES-75" value="&lt;span style=&quot;font-size: 12px;&quot;&gt;Account&lt;/span&gt;" style="swimlane;childLayout=stackLayout;horizontal=1;startSize=50;horizontalStack=0;rounded=1;fontSize=14;fontStyle=0;strokeWidth=2;resizeParent=0;resizeLast=1;shadow=0;dashed=0;align=center;arcSize=4;whiteSpace=wrap;html=1;fillColor=#e1d5e7;strokeColor=#9673a6;" vertex="1" parent="1">
          <mxGeometry x="160" y="930" width="160" height="195" as="geometry" />
        </mxCell>
        <mxCell id="83QOzR8mfGI3t9jmjYES-76" value="user_id (PK)&lt;div&gt;user_name&lt;/div&gt;&lt;div&gt;user_contact&lt;br&gt;user_email&lt;br&gt;user_address&lt;/div&gt;&lt;div&gt;user_username&lt;/div&gt;&lt;div&gt;user_password&lt;/div&gt;&lt;div&gt;user_image&lt;/div&gt;&lt;div&gt;role_id (FK)&lt;/div&gt;" style="align=left;strokeColor=none;fillColor=none;spacingLeft=4;fontSize=12;verticalAlign=top;resizable=0;rotatable=0;part=1;html=1;" vertex="1" parent="83QOzR8mfGI3t9jmjYES-75">
          <mxGeometry y="50" width="160" height="145" as="geometry" />
        </mxCell>
        <mxCell id="83QOzR8mfGI3t9jmjYES-80" value="Role" style="whiteSpace=wrap;html=1;align=center;" vertex="1" parent="1">
          <mxGeometry x="450" y="280" width="100" height="40" as="geometry" />
        </mxCell>
        <mxCell id="83QOzR8mfGI3t9jmjYES-82" value="Role" style="swimlane;childLayout=stackLayout;horizontal=1;startSize=50;horizontalStack=0;rounded=1;fontSize=14;fontStyle=0;strokeWidth=2;resizeParent=0;resizeLast=1;shadow=0;dashed=0;align=center;arcSize=4;whiteSpace=wrap;html=1;fillColor=#d0cee2;strokeColor=#56517e;" vertex="1" parent="1">
          <mxGeometry x="530" y="720" width="160" height="120" as="geometry" />
        </mxCell>
        <mxCell id="83QOzR8mfGI3t9jmjYES-83" value="role_id (PK)&lt;div&gt;role_name&lt;/div&gt;&lt;div&gt;role_description&lt;/div&gt;" style="align=left;strokeColor=#56517e;fillColor=#d0cee2;spacingLeft=4;fontSize=12;verticalAlign=top;resizable=0;rotatable=0;part=1;html=1;" vertex="1" parent="83QOzR8mfGI3t9jmjYES-82">
          <mxGeometry y="50" width="160" height="70" as="geometry" />
        </mxCell>
        <mxCell id="83QOzR8mfGI3t9jmjYES-90" value="" style="edgeStyle=orthogonalEdgeStyle;fontSize=12;html=1;endArrow=ERmandOne;startArrow=ERmandOne;rounded=0;exitX=1;exitY=0.098;exitDx=0;exitDy=0;exitPerimeter=0;" edge="1" parent="1" source="83QOzR8mfGI3t9jmjYES-67" target="83QOzR8mfGI3t9jmjYES-76">
          <mxGeometry width="100" height="100" relative="1" as="geometry">
            <mxPoint x="200" y="1350" as="sourcePoint" />
            <mxPoint x="300" y="1250" as="targetPoint" />
          </mxGeometry>
        </mxCell>
        <mxCell id="83QOzR8mfGI3t9jmjYES-96" value="" style="edgeStyle=elbowEdgeStyle;fontSize=12;html=1;endArrow=ERmandOne;startArrow=ERmandOne;rounded=0;exitX=1.002;exitY=0.837;exitDx=0;exitDy=0;exitPerimeter=0;" edge="1" parent="1" source="83QOzR8mfGI3t9jmjYES-76" target="83QOzR8mfGI3t9jmjYES-83">
          <mxGeometry width="100" height="100" relative="1" as="geometry">
            <mxPoint x="444.5199999999995" y="828.73" as="sourcePoint" />
            <mxPoint x="470.00000000000006" y="940" as="targetPoint" />
            <Array as="points">
              <mxPoint x="490" y="780" />
            </Array>
          </mxGeometry>
        </mxCell>
        <mxCell id="83QOzR8mfGI3t9jmjYES-97" value="" style="edgeStyle=elbowEdgeStyle;fontSize=12;html=1;endArrow=ERzeroToMany;startArrow=ERmandOne;rounded=0;exitX=1;exitY=0.25;exitDx=0;exitDy=0;entryX=1;entryY=0.857;entryDx=0;entryDy=0;entryPerimeter=0;fillColor=#d0cee2;strokeColor=#56517e;" edge="1" parent="1" source="83QOzR8mfGI3t9jmjYES-83" target="83QOzR8mfGI3t9jmjYES-60">
          <mxGeometry width="100" height="100" relative="1" as="geometry">
            <mxPoint x="610" y="855" as="sourcePoint" />
            <mxPoint x="620" y="935" as="targetPoint" />
            <Array as="points">
              <mxPoint x="740" y="900" />
            </Array>
          </mxGeometry>
        </mxCell>
        <mxCell id="83QOzR8mfGI3t9jmjYES-98" value="" style="edgeStyle=orthogonalEdgeStyle;fontSize=12;html=1;endArrow=ERmandOne;startArrow=ERmandOne;rounded=0;entryX=0.002;entryY=0.445;entryDx=0;entryDy=0;entryPerimeter=0;exitX=1;exitY=0.75;exitDx=0;exitDy=0;" edge="1" parent="1" source="83QOzR8mfGI3t9jmjYES-65" target="83QOzR8mfGI3t9jmjYES-76">
          <mxGeometry width="100" height="100" relative="1" as="geometry">
            <mxPoint x="25" y="1372" as="sourcePoint" />
            <mxPoint x="245" y="1115" as="targetPoint" />
          </mxGeometry>
        </mxCell>
        <mxCell id="83QOzR8mfGI3t9jmjYES-99" value="" style="edgeStyle=orthogonalEdgeStyle;fontSize=12;html=1;endArrow=ERmandOne;startArrow=ERmandOne;rounded=0;entryX=0.002;entryY=0.097;entryDx=0;entryDy=0;entryPerimeter=0;" edge="1" parent="1" source="83QOzR8mfGI3t9jmjYES-63" target="83QOzR8mfGI3t9jmjYES-76">
          <mxGeometry width="100" height="100" relative="1" as="geometry">
            <mxPoint x="25" y="1200" as="sourcePoint" />
            <mxPoint x="165" y="1043" as="targetPoint" />
            <Array as="points">
              <mxPoint x="50" y="994" />
              <mxPoint x="50" y="994" />
            </Array>
          </mxGeometry>
        </mxCell>
        <mxCell id="83QOzR8mfGI3t9jmjYES-102" value="" style="edgeStyle=elbowEdgeStyle;fontSize=12;html=1;endArrow=ERzeroToMany;startArrow=ERmandOne;rounded=0;fillColor=#f8cecc;strokeColor=#b85450;" edge="1" parent="1">
          <mxGeometry width="100" height="100" relative="1" as="geometry">
            <mxPoint x="-140" y="990" as="sourcePoint" />
            <mxPoint x="-300" y="1390" as="targetPoint" />
            <Array as="points">
              <mxPoint x="-260" y="1190" />
              <mxPoint x="-292" y="1157" />
            </Array>
          </mxGeometry>
        </mxCell>
        <mxCell id="83QOzR8mfGI3t9jmjYES-103" value="" style="edgeStyle=elbowEdgeStyle;fontSize=12;html=1;endArrow=ERzeroToMany;startArrow=ERmandOne;rounded=0;exitX=0.005;exitY=0.822;exitDx=0;exitDy=0;exitPerimeter=0;entryX=-0.006;entryY=0.878;entryDx=0;entryDy=0;entryPerimeter=0;fillColor=#ffe6cc;strokeColor=#d79b00;" edge="1" parent="1" target="83QOzR8mfGI3t9jmjYES-73">
          <mxGeometry width="100" height="100" relative="1" as="geometry">
            <mxPoint x="-459.99999999999983" y="1340.83" as="sourcePoint" />
            <mxPoint x="-587.2399999999998" y="1080" as="targetPoint" />
            <Array as="points">
              <mxPoint x="-755" y="1290" />
              <mxPoint x="-645.8" y="1253.08" />
              <mxPoint x="-940.3" y="1435.08" />
            </Array>
          </mxGeometry>
        </mxCell>
        <mxCell id="83QOzR8mfGI3t9jmjYES-107" value="" style="edgeStyle=elbowEdgeStyle;fontSize=12;html=1;endArrow=ERmandOne;startArrow=ERmandOne;rounded=0;entryX=0.007;entryY=0.663;entryDx=0;entryDy=0;entryPerimeter=0;exitX=0.001;exitY=0.086;exitDx=0;exitDy=0;exitPerimeter=0;fillColor=#ffe6cc;strokeColor=#d79b00;" edge="1" parent="1" source="83QOzR8mfGI3t9jmjYES-71" target="83QOzR8mfGI3t9jmjYES-69">
          <mxGeometry width="100" height="100" relative="1" as="geometry">
            <mxPoint x="-555" y="1217" as="sourcePoint" />
            <mxPoint x="-387" y="1095" as="targetPoint" />
            <Array as="points">
              <mxPoint x="-527" y="1150" />
            </Array>
          </mxGeometry>
        </mxCell>
        <mxCell id="83QOzR8mfGI3t9jmjYES-109" value="" style="edgeStyle=elbowEdgeStyle;fontSize=12;html=1;endArrow=ERzeroToMany;startArrow=ERmandOne;rounded=0;exitX=0.002;exitY=0.613;exitDx=0;exitDy=0;exitPerimeter=0;entryX=0.996;entryY=0.112;entryDx=0;entryDy=0;entryPerimeter=0;fillColor=#dae8fc;strokeColor=#6c8ebf;" edge="1" parent="1" source="83QOzR8mfGI3t9jmjYES-65" target="83QOzR8mfGI3t9jmjYES-71">
          <mxGeometry width="100" height="100" relative="1" as="geometry">
            <mxPoint x="-143" y="1180" as="sourcePoint" />
            <mxPoint x="-305" y="1405" as="targetPoint" />
            <Array as="points">
              <mxPoint x="-230" y="1300" />
              <mxPoint x="-295" y="1347" />
            </Array>
          </mxGeometry>
        </mxCell>
        <mxCell id="83QOzR8mfGI3t9jmjYES-114" value="" style="edgeStyle=elbowEdgeStyle;fontSize=12;html=1;endArrow=ERzeroToMany;startArrow=ERmandOne;rounded=0;exitX=0;exitY=0.25;exitDx=0;exitDy=0;fillColor=#d5e8d4;strokeColor=#82b366;" edge="1" parent="1" source="83QOzR8mfGI3t9jmjYES-67" target="83QOzR8mfGI3t9jmjYES-71">
          <mxGeometry width="100" height="100" relative="1" as="geometry">
            <mxPoint x="-105" y="1485" as="sourcePoint" />
            <mxPoint x="-265" y="1696" as="targetPoint" />
            <Array as="points">
              <mxPoint x="-190" y="1432" />
              <mxPoint x="-260" y="1629" />
            </Array>
          </mxGeometry>
        </mxCell>
        <mxCell id="83QOzR8mfGI3t9jmjYES-115" value="" style="edgeStyle=orthogonalEdgeStyle;fontSize=12;html=1;endArrow=ERzeroToMany;startArrow=ERmandOne;rounded=0;exitX=0;exitY=0.5;exitDx=0;exitDy=0;entryX=-0.012;entryY=0.709;entryDx=0;entryDy=0;entryPerimeter=0;fillColor=#d5e8d4;strokeColor=#82b366;" edge="1" parent="1" source="83QOzR8mfGI3t9jmjYES-67" target="83QOzR8mfGI3t9jmjYES-73">
          <mxGeometry width="100" height="100" relative="1" as="geometry">
            <mxPoint x="-135" y="1365" as="sourcePoint" />
            <mxPoint x="-295" y="1437" as="targetPoint" />
            <Array as="points">
              <mxPoint x="-170" y="1385" />
              <mxPoint x="-170" y="1455" />
              <mxPoint x="-770" y="1455" />
              <mxPoint x="-770" y="1230" />
            </Array>
          </mxGeometry>
        </mxCell>
        <mxCell id="83QOzR8mfGI3t9jmjYES-120" style="edgeStyle=orthogonalEdgeStyle;rounded=0;orthogonalLoop=1;jettySize=auto;html=1;entryX=0;entryY=0.5;entryDx=0;entryDy=0;" edge="1" parent="1" source="83QOzR8mfGI3t9jmjYES-118" target="83QOzR8mfGI3t9jmjYES-20">
          <mxGeometry relative="1" as="geometry">
            <Array as="points">
              <mxPoint x="-485" y="585" />
              <mxPoint x="-485" y="380" />
            </Array>
          </mxGeometry>
        </mxCell>
        <mxCell id="83QOzR8mfGI3t9jmjYES-118" value="has a" style="shape=rhombus;perimeter=rhombusPerimeter;whiteSpace=wrap;html=1;align=center;" vertex="1" parent="1">
          <mxGeometry x="-435" y="555" width="120" height="60" as="geometry" />
        </mxCell>
        <mxCell id="83QOzR8mfGI3t9jmjYES-122" value="" style="fontSize=12;html=1;endArrow=ERzeroToMany;startArrow=ERmandOne;rounded=0;exitX=0;exitY=0;exitDx=0;exitDy=0;elbow=vertical;edgeStyle=orthogonalEdgeStyle;fillColor=#d5e8d4;strokeColor=#82b366;" edge="1" parent="1" source="83QOzR8mfGI3t9jmjYES-67" target="83QOzR8mfGI3t9jmjYES-69">
          <mxGeometry width="100" height="100" relative="1" as="geometry">
            <mxPoint x="-140" y="1356.01" as="sourcePoint" />
            <mxPoint x="-470.64" y="1100.0149999999999" as="targetPoint" />
            <Array as="points">
              <mxPoint x="-205" y="1360" />
              <mxPoint x="-205" y="1239" />
              <mxPoint x="-505" y="1239" />
              <mxPoint x="-505" y="1115" />
            </Array>
          </mxGeometry>
        </mxCell>
        <mxCell id="83QOzR8mfGI3t9jmjYES-126" value="&lt;font style=&quot;font-size: 30px;&quot;&gt;Conceptual&lt;/font&gt;" style="text;html=1;align=center;verticalAlign=middle;resizable=0;points=[];autosize=1;strokeColor=none;fillColor=none;" vertex="1" parent="1">
          <mxGeometry x="-467" y="168" width="175" height="50" as="geometry" />
        </mxCell>
        <mxCell id="83QOzR8mfGI3t9jmjYES-127" value="&lt;font style=&quot;font-size: 30px;&quot;&gt;Logical&lt;/font&gt;" style="text;html=1;align=center;verticalAlign=middle;resizable=0;points=[];autosize=1;strokeColor=none;fillColor=none;" vertex="1" parent="1">
          <mxGeometry x="-45" y="805" width="115" height="50" as="geometry" />
        </mxCell>
        <mxCell id="gUBXicnMl2X4cc1f-EWr-2" value="" style="edgeStyle=elbowEdgeStyle;fontSize=12;html=1;endArrow=ERzeroToMany;startArrow=ERmandOne;rounded=0;exitX=0;exitY=0.25;exitDx=0;exitDy=0;entryX=1.002;entryY=0.604;entryDx=0;entryDy=0;entryPerimeter=0;fillColor=#dae8fc;strokeColor=#6c8ebf;" edge="1" parent="1" source="83QOzR8mfGI3t9jmjYES-65" target="83QOzR8mfGI3t9jmjYES-73">
          <mxGeometry width="100" height="100" relative="1" as="geometry">
            <mxPoint x="-134" y="1014" as="sourcePoint" />
            <mxPoint x="-580" y="1210" as="targetPoint" />
            <Array as="points">
              <mxPoint x="-360" y="1155" />
              <mxPoint x="-304" y="1169" />
            </Array>
          </mxGeometry>
        </mxCell>
        <mxCell id="gUBXicnMl2X4cc1f-EWr-3" value="" style="edgeStyle=elbowEdgeStyle;fontSize=12;html=1;endArrow=ERzeroToMany;startArrow=ERmandOne;rounded=0;exitX=0;exitY=0.25;exitDx=0;exitDy=0;entryX=1.002;entryY=0.77;entryDx=0;entryDy=0;entryPerimeter=0;fillColor=#f8cecc;strokeColor=#b85450;" edge="1" parent="1" source="83QOzR8mfGI3t9jmjYES-62" target="83QOzR8mfGI3t9jmjYES-69">
          <mxGeometry width="100" height="100" relative="1" as="geometry">
            <mxPoint x="-157.5" y="965" as="sourcePoint" />
            <mxPoint x="-602.5" y="1004" as="targetPoint" />
            <Array as="points">
              <mxPoint x="-285" y="980" />
              <mxPoint x="-295" y="975" />
              <mxPoint x="-321.5" y="956" />
            </Array>
          </mxGeometry>
        </mxCell>
        <mxCell id="gUBXicnMl2X4cc1f-EWr-4" value="" style="edgeStyle=elbowEdgeStyle;fontSize=12;html=1;endArrow=ERzeroToMany;startArrow=ERmandOne;rounded=0;entryX=1;entryY=0.5;entryDx=0;entryDy=0;exitX=0.003;exitY=0.634;exitDx=0;exitDy=0;exitPerimeter=0;fillColor=#f8cecc;strokeColor=#b85450;" edge="1" parent="1" source="83QOzR8mfGI3t9jmjYES-63" target="83QOzR8mfGI3t9jmjYES-73">
          <mxGeometry width="100" height="100" relative="1" as="geometry">
            <mxPoint x="-130" y="1020" as="sourcePoint" />
            <mxPoint x="-580" y="1252" as="targetPoint" />
            <Array as="points">
              <mxPoint x="-240" y="1120" />
              <mxPoint x="-304" y="1169" />
            </Array>
          </mxGeometry>
        </mxCell>
        <mxCell id="by2wgwK94lr5X5FfYx05-1" value="" style="edgeStyle=elbowEdgeStyle;fontSize=12;html=1;endArrow=ERzeroToMany;startArrow=ERmandOne;rounded=0;entryX=1.015;entryY=0.118;entryDx=0;entryDy=0;entryPerimeter=0;fillColor=#dae8fc;strokeColor=#6c8ebf;" edge="1" parent="1" target="83QOzR8mfGI3t9jmjYES-73">
          <mxGeometry width="100" height="100" relative="1" as="geometry">
            <mxPoint x="-460" y="1420" as="sourcePoint" />
            <mxPoint x="-790" y="1526" as="targetPoint" />
            <Array as="points">
              <mxPoint x="-550" y="1300" />
              <mxPoint x="-784" y="1539" />
            </Array>
          </mxGeometry>
        </mxCell>
        <mxCell id="XydSwLDrHYkabdnqfKJp-1" value="" style="edgeStyle=elbowEdgeStyle;fontSize=12;html=1;endArrow=ERzeroToMany;startArrow=ERmandOne;rounded=0;entryX=-0.012;entryY=0.093;entryDx=0;entryDy=0;exitX=0;exitY=0.75;exitDx=0;exitDy=0;fillColor=#f8cecc;strokeColor=#000000;entryPerimeter=0;" edge="1" parent="1" source="83QOzR8mfGI3t9jmjYES-70" target="83QOzR8mfGI3t9jmjYES-69">
          <mxGeometry width="100" height="100" relative="1" as="geometry">
            <mxPoint x="-135" y="1029" as="sourcePoint" />
            <mxPoint x="-580" y="1210" as="targetPoint" />
            <Array as="points">
              <mxPoint x="-515" y="1205" />
              <mxPoint x="-299" y="1174" />
            </Array>
          </mxGeometry>
        </mxCell>
      </root>
    </mxGraphModel>
  </diagram>
</mxfile>
